<svg xmlns="http://www.w3.org/2000/svg" viewBox="0 0 192 192" role="img" aria-label="CosmicLove">
  <defs>
    <radialGradient id="bg" cx="35%" cy="25%" r="90%">
      <stop offset="0" stop-color="#8c3b75"/>
      <stop offset="0.55" stop-color="#3c1538"/>
      <stop offset="1" stop-color="#19091f"/>
    </radialGradient>
    <linearGradient id="heart" x1="0" y1="0" x2="1" y2="1">
      <stop offset="0" stop-color="#ffd1e3"/>
      <stop offset="0.5" stop-color="#ff6fa8"/>
      <stop offset="1" stop-color="#d4547e"/>
    </linearGradient>
  </defs>
  <rect width="192" height="192" rx="42" fill="url(#bg)"/>
  <circle cx="40" cy="37" r="4" fill="#fff" opacity=".8"/>
  <circle cx="151" cy="50" r="3" fill="#fff" opacity=".7"/>
  <circle cx="152" cy="145" r="4" fill="#ffd1e3" opacity=".8"/>
  <path d="M96 151C87 142 43 115 43 79c0-19 13-32 30-32 11 0 19 6 23 15 4-9 12-15 23-15 17 0 30 13 30 32 0 36-44 63-53 72z" fill="url(#heart)" stroke="#ffe7f1" stroke-width="4"/>
  <path d="M66 73c4-10 15-14 25-10" fill="none" stroke="#fff" stroke-width="5" stroke-linecap="round" opacity=".75"/>
</svg>
